<?xml version="1.0" encoding="UTF-8"?>
<svg width="408px" height="185px" viewBox="0 0 408 185" version="1.1" xmlns="http://www.w3.org/2000/svg" xmlns:xlink="http://www.w3.org/1999/xlink" style="background: #477FFB;">
    <!-- Generator: Sketch 45.2 (43514) - http://www.bohemiancoding.com/sketch -->
    <title>paste-dat copy</title>
    <desc>Created with Sketch.</desc>
    <defs></defs>
    <g id="Page-1" stroke="none" stroke-width="1" fill="none" fill-rule="evenodd">
        <g id="paste-dat-copy">
            <polygon id="Triangle" stroke="#F8E71C" stroke-width="2" points="274 11.4470147 285.816931 12.316258 279.908465 22.4304131"></polygon>
            <polygon id="Triangle-Copy" stroke="#F8E71C" stroke-width="2" points="402 97 413.816931 97.8692433 407.908465 107.983398"></polygon>
            <polygon id="Triangle-Copy-2" stroke="#F8E71C" stroke-width="2" transform="translate(283.995226, 163.237467) rotate(50.000000) translate(-283.995226, -163.237467) " points="278.086761 157.745768 289.903691 158.615011 283.995226 168.729166"></polygon>
            <polygon id="Triangle-Copy-3" stroke="#F8E71C" stroke-width="2" points="328 162 339.816931 162.869243 333.908465 172.983398"></polygon>
            <polygon id="Triangle-Copy-4" stroke="#F8E71C" stroke-width="2" transform="translate(315.004774, 3.056143) rotate(50.000000) translate(-315.004774, -3.056143) " points="309.096309 -2.4355559 320.913239 -1.56631261 315.004774 8.54784253"></polygon>
            <polygon id="Triangle-Copy-4" stroke="#F8E71C" stroke-width="2" transform="translate(272.181323, 134.430413) rotate(70.000000) translate(-272.181323, -134.430413) " points="266.272858 128.938714 278.089789 129.807957 272.181323 139.922112"></polygon>
            <polygon id="Triangle-Copy-4" stroke="#F8E71C" stroke-width="2" transform="translate(383.430413, 155.181323) rotate(20.000000) translate(-383.430413, -155.181323) " points="377.521948 149.689624 389.338879 150.558867 383.430413 160.673023"></polygon>
            <polygon id="Triangle-Copy-4" stroke="#F8E71C" stroke-width="2" transform="translate(400.004774, 64.056143) rotate(50.000000) translate(-400.004774, -64.056143) " points="394.096309 58.5644441 405.913239 59.4336874 400.004774 69.5478425"></polygon>
            <polygon id="Triangle-Copy-4" stroke="#F8E71C" stroke-width="2" transform="translate(353.430413, 22.430413) rotate(20.000000) translate(-353.430413, -22.430413) " points="347.521948 16.9387139 359.338879 17.8079572 353.430413 27.9221123"></polygon>
            <polygon id="Triangle-Copy-4" stroke="#F8E71C" stroke-width="2" transform="translate(347.181323, 114.430413) rotate(70.000000) translate(-347.181323, -114.430413) " points="341.272858 108.938714 353.089789 109.807957 347.181323 119.922112"></polygon>
            <polygon id="Triangle-Copy-4" stroke="#F8E71C" stroke-width="2" transform="translate(346.000000, 50.430413) rotate(70.000000) translate(-346.000000, -50.430413) " points="340.091535 44.9387139 351.908465 45.8079572 346 55.9221123"></polygon>
            <polygon id="Triangle-Copy-4" stroke="#F8E71C" stroke-width="2" transform="translate(401.181323, 22.430413) rotate(20.000000) translate(-401.181323, -22.430413) " points="395.272858 16.9387139 407.089789 17.8079572 401.181323 27.9221123"></polygon>
            <polygon id="Triangle-Copy-4" stroke="#F8E71C" stroke-width="2" transform="translate(291.181323, 72.389113) rotate(70.000000) translate(-291.181323, -72.389113) " points="285.272858 66.8974134 297.089789 67.7666567 291.181323 77.8808118"></polygon>
            <polygon id="Triangle-Copy-4" stroke="#F8E71C" stroke-width="2" transform="translate(324.004774, 41.056143) rotate(50.000000) translate(-324.004774, -41.056143) " points="318.096309 35.5644441 329.913239 36.4336874 324.004774 46.5478425"></polygon>
            <polygon id="Triangle-Copy-4" stroke="#F8E71C" stroke-width="2" transform="translate(392.181323, 130.430413) rotate(70.000000) translate(-392.181323, -130.430413) " points="386.272858 124.938714 398.089789 125.807957 392.181323 135.922112"></polygon>
            <polygon id="Triangle-Copy-4" stroke="#F8E71C" stroke-width="2" transform="translate(368.569587, 100.181323) rotate(20.000000) translate(-368.569587, -100.181323) " points="362.661121 94.6896242 374.478052 95.5588675 368.569587 105.673023"></polygon>
            <polygon id="Triangle-Copy-4" stroke="#F8E71C" stroke-width="2" transform="translate(375.181323, 7.430413) rotate(70.000000) translate(-375.181323, -7.430413) " points="369.272858 1.93871389 381.089789 2.80795718 375.181323 12.9221123"></polygon>
            <polygon id="Triangle-Copy-4" stroke="#F8E71C" stroke-width="2" transform="translate(352.096524, 66.694556) rotate(2.000000) translate(-352.096524, -66.694556) " points="346.188058 61.2028571 358.004989 62.0721004 352.096524 72.1862555"></polygon>
            <polygon id="Triangle-Copy-4" stroke="#F8E71C" stroke-width="2" transform="translate(302.430413, 100.181323) rotate(20.000000) translate(-302.430413, -100.181323) " points="296.521948 94.6896242 308.338879 95.5588675 302.430413 105.673023"></polygon>
            <polygon id="Triangle-Copy-5" stroke="#F8E71C" stroke-width="2" transform="translate(314.004774, 138.056143) rotate(50.000000) translate(-314.004774, -138.056143) " points="308.096309 132.564444 319.913239 133.433687 314.004774 143.547843"></polygon>
            <circle id="Oval" fill="#ED97E1" cx="320" cy="66" r="6"></circle>
            <circle id="Oval" fill="#ED97E1" cx="375" cy="58" r="6"></circle>
            <circle id="Oval" fill="#ED97E1" cx="279.362647" cy="52" r="6"></circle>
            <circle id="Oval" fill="#ED97E1" cx="404" cy="148" r="6"></circle>
            <circle id="Oval" fill="#ED97E1" cx="379" cy="33.4916992" r="6"></circle>
            <circle id="Oval" fill="#ED97E1" cx="306" cy="21" r="6"></circle>
            <circle id="Oval" fill="#ED97E1" cx="298" cy="126" r="6"></circle>
            <circle id="Oval" fill="#ED97E1" cx="328" cy="96" r="6"></circle>
            <circle id="Oval" fill="#ED97E1" cx="345" cy="2" r="6"></circle>
            <circle id="Oval" fill="#ED97E1" cx="408" cy="46" r="6"></circle>
            <circle id="Oval" fill="#ED97E1" cx="375" cy="181" r="6"></circle>
            <circle id="Oval" fill="#ED97E1" cx="352" cy="142" r="6"></circle>
            <circle id="Oval" fill="#ED97E1" cx="276.998254" cy="99" r="6"></circle>
            <circle id="Oval" fill="#ED97E1" cx="306" cy="179" r="6"></circle>
            <circle id="Oval" fill="#ED97E1" cx="389" cy="88" r="6"></circle>
        </g>
    </g>
</svg>